<svg width="160" height="100" viewBox="0 0 160 100" fill="none" xmlns="http://www.w3.org/2000/svg">
<path d="M84.6294 62.8464C84.3313 59.6542 82.344 57.8586 79.4127 57.8586C75.6368 57.8586 74.047 60.0034 73.4508 62.8464H84.6294Z" fill="#009985"/>
<path fill-rule="evenodd" clip-rule="evenodd" d="M81.942 96.8738C92.3449 90.9815 99.9622 71.9487 99.9622 49.3793C99.9622 22.1079 88.8403 0 75.1208 0C62.617 0 52.2709 18.3634 50.5355 42.263C29.0513 31.822 8.03737 31.6355 1.78548 42.5067C-5.07427 54.4349 8.43578 75.1585 31.961 88.7943C51.4304 100.079 71.6578 102.973 81.942 96.8738ZM44.8635 57.8586C46.1055 55.2151 49.0368 51.6737 53.5579 51.6737C59.2218 51.6737 62.9977 55.3647 62.9977 62.8464V78.8074H55.0484V66.0386C55.0484 60.1031 53.707 58.4572 50.8751 58.4572C47.6457 58.4572 44.7144 62.597 44.7144 68.6822V78.8074H36.7652V42.8952H44.7144V53.7187C44.7144 54.9158 44.466 55.7637 44.0685 56.5618C43.6711 57.3598 43.1743 58.3574 43.8201 58.6068C44.3809 58.8414 44.634 58.3258 44.8275 57.9316C44.8397 57.9067 44.8517 57.8823 44.8635 57.8586ZM79.2637 51.6737C85.9212 51.6737 92.4296 55.7637 92.4296 64.8416C92.4296 65.5897 92.3799 66.8866 92.2805 67.6347H73.2521C73.7986 70.9766 76.0343 73.2211 79.363 73.2211C81.8472 73.2211 83.3873 71.9741 84.0332 70.0289H91.9328C90.8894 75.0167 86.8154 79.6055 79.4127 79.6055C70.2711 79.6055 65.4022 73.4206 65.4022 65.6396C65.4022 57.4596 70.4698 51.6737 79.2637 51.6737Z" fill="#009985"/>
<path d="M102.346 43.9555V79.8677H110.296V43.9555H102.346Z" fill="#009985"/>
<path d="M126.594 49.5418H131.363V43.1574H124.01C118.744 43.1574 116.26 44.9032 116.26 51.2377V53.5321H112.285V59.9165H116.26V79.8677H124.209V59.9165H131.363V53.5321H124.209V52.1355C124.209 49.6416 124.308 49.5418 126.594 49.5418Z" fill="#009985"/>
<path d="M131.383 53.5321L141.568 80.3166L141.27 81.0648C140.375 83.2594 139.63 83.0599 135.854 83.0599H133.668V89.4443H140.028C144.598 89.4443 147.082 87.5988 148.871 82.9103L160 53.5321H151.554L147.033 69.1439C146.735 70.1415 146.685 71.0393 146.586 71.9371C146.536 72.4359 146.486 72.9845 145.791 72.9845C145.095 72.9845 144.996 72.4359 144.996 71.9371C144.996 71.0393 144.896 70.1415 144.598 69.1439L139.829 53.5321H131.383Z" fill="#009985"/>
</svg>
